<svg width="99" height="99" xmlns="http://www.w3.org/2000/svg">
 <!-- Created with SVG Editor - http://github.com/mzalive/SVG Editor/ -->

 <g>
  <title>background</title>
  <rect fill="#ffff00" id="canvas_background" height="101" width="101" y="-1" x="-1"/>
 </g>
 <g>
  <title>Layer 1</title>
  <g id="svg_21">
   <path id="svg_4" fill="black" d="m55.201235,31.999898c1.002006,0 1.756711,0.312622 2.264215,0.937866c0.520503,0.611934 0.780805,1.463329 0.780805,2.554176l0,0.379132l-1.444509,0l0,-0.458953c0,-1.330299 -0.520503,-1.995453 -1.56151,-1.995453c-1.041007,0 -1.56151,0.658504 -1.56151,1.975503c0,0.665144 0.175601,1.230528 0.527003,1.696131c0.351302,0.452303 0.878306,0.957816 1.58101,1.51654c0.559604,0.478913 0.995506,0.884656 1.307808,1.217228c0.325402,0.332582 0.598604,0.744985 0.819805,1.237188c0.234302,0.492203 0.351402,1.057607 0.351402,1.696111c0,1.090907 -0.260302,1.948913 -0.780805,2.574117c-0.520503,0.612004 -1.288308,0.917906 -2.303315,0.917906c-1.015007,0 -1.782711,-0.305902 -2.303215,-0.917906c-0.507503,-0.625204 -0.761305,-1.48321 -0.761305,-2.574117l0,-0.798205l1.424909,0l0,0.878006c0,0.638604 0.130201,1.130807 0.390403,1.47671c0.273302,0.345802 0.676704,0.518803 1.210208,0.518803c0.533503,0 0.930406,-0.173001 1.190708,-0.518803c0.273302,-0.345902 0.409903,-0.838105 0.409903,-1.47671c0,-0.651804 -0.175701,-1.203908 -0.527003,-1.656211c-0.338402,-0.452303 -0.858906,-0.964406 -1.56161,-1.53648c-0.533503,-0.452303 -0.969406,-0.844735 -1.307808,-1.177318c-0.325302,-0.345872 -0.605104,-0.764925 -0.839305,-1.257128c-0.221201,-0.505523 -0.331802,-1.077547 -0.331802,-1.716091c0,-1.104147 0.253702,-1.962193 0.761205,-2.574137c0.507503,-0.611934 1.262308,-0.917906 2.264315,-0.917906z"/>
   <path id="svg_5" fill="black" d="m67.089912,39.722298l-3.337821,0l0,4.968682l4.099026,0l0,1.416809l-5.621536,0l0,-13.96821l5.621536,0l0,1.416769l-4.099026,0l0,4.769131l3.337821,0l0,1.396819z"/>
   <path id="svg_6" fill="black" d="m75.275364,44.291878l2.205714,-12.152298l1.405409,0l-2.557016,13.96821l-2.244814,0l-2.576517,-13.96821l1.54201,0l2.225214,12.152298z"/>
   <path id="svg_7" fill="black" d="m87.552443,39.722298l-3.337821,0l0,4.968682l4.099126,0l0,1.416809l-5.621636,0l0,-13.96821l5.621636,0l0,1.416769l-4.099126,0l0,4.769131l3.337821,0l0,1.396819z"/>
   <path id="svg_8" fill="black" d="m92.341574,46.107789l0,-13.96821l1.932412,0l3.16222,10.096985l0,-10.096985l1.346809,0l0,13.96821l-1.58111,0l-3.493922,-11.294303l0,11.294303l-1.366409,0z"/>
   <path id="svg_9" fill="black" d="m53.873926,66.860423l-1.873912,-13.96819l1.48351,0l1.60051,11.892977l1.52261,-11.872976l1.50291,0l1.50301,11.892877l1.54201,-11.912877l1.327409,0l-1.854412,13.96819l-2.010513,0l-1.307808,-9.478361l-1.346809,9.478361l-2.088513,0z"/>
   <path id="svg_10" fill="black" d="m67.869417,66.860423l-1.52251,0l0,-13.96819l1.52251,0l0,13.96819z"/>
   <path id="svg_11" fill="black" d="m72.050543,66.860423l0,-13.96819l1.932412,0l3.16222,10.097065l0,-10.097065l1.346809,0l0,13.96819l-1.58111,0l-3.493922,-11.294273l0,11.294273l-1.366409,0z"/>
   <path id="svg_12" fill="black" d="m85.893333,52.892233c1.041007,0 1.815312,0.306002 2.322815,0.917906c0.520503,0.598704 0.780805,1.450109 0.780805,2.554216l0,7.043945c0,1.090807 -0.260302,1.942213 -0.780805,2.554216c-0.507503,0.598604 -1.281808,0.897906 -2.322815,0.897906l-3.201221,0l0,-13.96819l3.201221,0zm-0.0195,12.551481c1.080107,0 1.62011,-0.658504 1.62011,-1.975513l0,-7.183646c0,-1.317008 -0.546604,-1.975513 -1.639611,-1.975513l-1.639711,0l0,11.134672l1.659211,0z"/>
   <path id="svg_13" fill="black" d="m95.935797,52.752632c1.002006,0 1.756711,0.312602 2.264215,0.937806c0.520503,0.612004 0.780805,1.463309 0.780805,2.554216l0,0.379102l-1.444409,0l0,-0.458903c0,-1.330309 -0.520603,-1.995513 -1.56161,-1.995513c-1.041007,0 -1.56151,0.658504 -1.56151,1.975513c0,0.665204 0.175601,1.230508 0.527003,1.696111c0.351302,0.452303 0.878406,0.957806 1.58101,1.51661c0.559604,0.478903 0.995506,0.884606 1.307808,1.217208c0.325402,0.332602 0.598604,0.744905 0.819905,1.237208c0.234202,0.492203 0.351302,1.057507 0.351302,1.696111c0,1.090807 -0.260302,1.948913 -0.780805,2.574117c-0.520503,0.611904 -1.288208,0.917906 -2.303215,0.917906c-1.015007,0 -1.782811,-0.306002 -2.303315,-0.917906c-0.507503,-0.625204 -0.761305,-1.48331 -0.761305,-2.574117l0,-0.798205l1.424909,0l0,0.878006c0,0.638504 0.130201,1.130707 0.390403,1.47661c0.273302,0.345902 0.676704,0.518803 1.210208,0.518803c0.533503,0 0.930406,-0.172901 1.190708,-0.518803c0.273302,-0.345902 0.409903,-0.838105 0.409903,-1.47661c0,-0.651804 -0.175701,-1.203908 -0.527003,-1.656211c-0.338402,-0.452303 -0.858906,-0.964506 -1.56161,-1.53651c-0.533503,-0.452303 -0.969406,-0.844705 -1.307808,-1.177308c-0.325302,-0.345902 -0.605104,-0.764905 -0.839305,-1.257108c-0.221201,-0.505503 -0.331802,-1.077607 -0.331802,-1.716111c0,-1.104207 0.253702,-1.962213 0.761205,-2.574117c0.507503,-0.612004 1.262308,-0.917906 2.264315,-0.917906z"/>
   <path id="svg_14" fill="black" d="m34.680703,31.004412c-0.0103,-0.00599 -0.023,-0.00603 -0.0333,-0.00011l-33.232124,19.078213c-0.258822,0.148601 -0.417493,0.423903 -0.415573,0.721005l0.07016,10.86607c0.00188,0.291202 0.157781,0.560004 0.410383,0.707405l9.438401,5.509435c0.257902,0.150501 0.577404,0.151701 0.836405,0.003l10.339567,-5.361735c0.258602,-0.148501 0.417303,-0.423603 0.415603,-0.720505l-0.0464,-8.017052c-0.0017,-0.296902 0.156901,-0.572004 0.415603,-0.720505l3.735624,-1.718611c0.258602,-0.148501 0.577504,-0.147601 0.835305,0.0024l6.959145,4.048426c0.257802,0.149901 0.576704,0.150801 0.835305,0.0023l9.33956,-6.361741c0.259002,-0.148701 0.417703,-0.424303 0.415603,-0.721705l-0.079201,-10.88241c-0.0021,-0.291242 -0.158201,-0.559874 -0.410903,-0.707115l-9.829163,-5.726767z"/>
   <path id="svg_15" fill="black" d="m0.06793,61.285487l-0.0682,-10.513868c-0.00559,-0.862606 0.457103,-1.661811 1.211838,-2.093113l32.301828,-18.460069c0.513203,-0.293262 1.145907,-0.291282 1.657211,0.00527l9.553962,5.541206c0.736905,0.427413 1.192208,1.207208 1.198408,2.052633l0.0769,10.529758c0.0063,0.863306 -0.456403,1.663411 -1.211808,2.095113l-9.078058,5.188033c-0.754305,0.431003 -1.684111,0.428403 -2.435816,-0.007l-6.359141,-3.682524l-3.789724,2.165814l0.0424,7.292447c0.005,0.862006 -0.457603,1.660511 -1.211908,2.091513l-9.078058,5.188033c-0.755405,0.431603 -1.686811,0.428303 -2.438916,-0.0088l-9.174239,-5.330834c-0.736575,-0.428003 -1.191198,-1.208108 -1.196678,-2.053613zm34.25347,-29.681901c0.01,-0.00573 0.0223,-0.00569 0.0323,0.0001l9.553962,5.541216c0.245702,0.142471 0.397403,0.402403 0.399503,0.684204l0.0769,10.529798c0.0021,0.287802 -0.152101,0.554504 -0.403903,0.698404l-9.078158,5.187933c-0.251402,0.143701 -0.561304,0.142801 -0.811905,-0.0023l-6.764344,-3.917225c-0.250602,-0.145101 -0.560504,-0.146001 -0.811905,-0.0023l-4.60313,2.630617c-0.251402,0.143601 -0.405603,0.409803 -0.403903,0.697104l0.0451,7.75725c0.0016,0.287302 -0.152601,0.553504 -0.404003,0.697204l-9.078058,5.187933c-0.251802,0.143901 -0.562304,0.142801 -0.813005,-0.0029l-9.174219,-5.330834c-0.245522,-0.142701 -0.397063,-0.402703 -0.398893,-0.684504l-0.0682,-10.513968c-0.00186,-0.287502 0.152371,-0.553904 0.403953,-0.697704l32.301908,-18.460029z" clip-rule="evenodd" fill-rule="evenodd"/>
   <path id="svg_16" fill="#FEE22F" d="m14.993376,51.839126l-3.11102,1.796112l-1.824012,-3.15922l-3.143,1.814612l1.824002,3.15922l-3.11096,1.796112l1.852202,3.208121l3.11096,-1.796112l1.824012,3.15922l3.14302,-1.814612l-1.824012,-3.15922l3.11092,-1.796112l-1.852112,-3.208121z"/>
   <path id="svg_17" fill="#FEE22F" d="m32.485289,40.546453c0.832505,-0.480703 1.111707,-1.55566 0.623604,-2.401075c-0.488103,-0.845425 -1.55871,-1.141137 -2.391215,-0.660494c-0.832505,0.480643 -1.111707,1.55563 -0.623604,2.401055c0.488103,0.845415 1.55871,1.141117 2.391215,0.660514z"/>
   <path id="svg_18" fill="#FEE22F" d="m30.846078,46.855594c0.832505,-0.480703 1.111707,-1.55571 0.623604,-2.401115c-0.488103,-0.845405 -1.55871,-1.141107 -2.391115,-0.660504c-0.832505,0.480703 -1.111707,1.55571 -0.623604,2.401115c0.488103,0.845405 1.55861,1.141107 2.391115,0.660504z"/>
   <path id="svg_19" fill="#FEE22F" d="m38.784129,42.272865c0.832505,-0.480603 1.111707,-1.55561 0.623604,-2.401035c-0.488103,-0.845425 -1.55871,-1.141137 -2.391215,-0.660494c-0.832505,0.480643 -1.111607,1.55562 -0.623504,2.401025c0.488103,0.845405 1.55861,1.141207 2.391115,0.660504z"/>
   <path id="svg_20" fill="#FEE22F" d="m37.139119,48.607505c0.832505,-0.480603 1.111707,-1.55561 0.623604,-2.401015c-0.488103,-0.845405 -1.55871,-1.141207 -2.391215,-0.660504c-0.832505,0.480603 -1.111707,1.55561 -0.623604,2.401015c0.488103,0.845405 1.55871,1.141107 2.391215,0.660504z"/>
  </g>
 </g>
</svg>